<svg id="logo-large" xmlns="http://www.w3.org/2000/svg" width="160" height="36" viewBox="0 0 160 36"><defs><style>.cls-1{fill:#76f6f6;}</style></defs><title>logo-large</title><path class="cls-1" d="M53.6187,28.1024a9.2022,9.2022,0,1,1-2.625-12.7464l-5.8906,5.8906V18.2877H41.372V30.25L56.3969,15.2237l-1.3183-1.3194a12.9291,12.9291,0,1,0,3.7876,9.1581H55.1351A9.2022,9.2022,0,0,1,53.6187,28.1024Z"/><polygon class="cls-1" points="24.172 29.044 4.028 2.552 0 2.552 0 35.284 4.024 35.284 4.024 8.839 24.172 35.284 28.2 35.284 28.2 2.552 24.172 2.552 24.172 29.044"/><polygon class="cls-1" points="69.595 3.559 65.566 3.559 65.566 10.105 60.178 10.105 60.178 13.882 65.566 13.882 65.566 35.284 69.595 35.284 69.595 13.882 74.983 13.882 74.983 10.105 69.595 10.105 69.595 3.559"/><polygon class="cls-1" points="84.551 2.552 80.518 2.552 80.518 35.284 102.678 35.284 102.678 31.508 84.551 31.508 84.551 2.552"/><path class="cls-1" d="M125.5439,16.9858c-.0537-.281-.1107-.5588-.173-.8315a9.37,9.37,0,0,0-2.519-4.7588,7.391,7.391,0,0,0-5.3626-1.7875,10.3317,10.3317,0,0,0-5.82,1.7027,11.9893,11.9893,0,0,0-4.1042,4.6831,14.6829,14.6829,0,0,0-1.5105,6.7487,14.7426,14.7426,0,0,0,1.4856,6.7227,11.9439,11.9439,0,0,0,3.9787,4.6356,9.5346,9.5346,0,0,0,5.4643,1.688,7.5416,7.5416,0,0,0,4.5338-1.2787,8.7137,8.7137,0,0,0,2.7452-3.3241,16.5892,16.5892,0,0,0,1.2821-3.7567v2.8194q0,.8028.1006,2.0148t.251,3.021h3.6768V10.1054h-4.0284Zm-.8118,10.3674a7.39,7.39,0,0,1-2.4874,3.3489,6.9178,6.9178,0,0,1-4.2557,1.26,7.175,7.175,0,0,1-4.0533-1.1872,8.1748,8.1748,0,0,1-2.8266-3.2788,10.614,10.614,0,0,1-1.0311-4.7588,10.51,10.51,0,0,1,2.0645-6.6707,6.981,6.981,0,0,1,5.8408-2.6434,6.7423,6.7423,0,0,1,6.7238,4.4615,13.1107,13.1107,0,0,1,.831,4.8617A12.7309,12.7309,0,0,1,124.7321,27.3531Z"/><path class="cls-1" d="M158.4792,15.9925a11.6178,11.6178,0,0,0-3.8781-4.6831,9.6557,9.6557,0,0,0-5.64-1.7118,9.1454,9.1454,0,0,0-4.6084,1.0311,6.9918,6.9918,0,0,0-2.744,2.8458,13.0449,13.0449,0,0,0-1.21,3.4991V.0337h-4.0284V35.2845h3.6757q.0995-1.1057.2261-2.6185t.1266-2.4173V27.4079a16.5062,16.5062,0,0,0,1.2855,3.7724,8.7058,8.7058,0,0,0,2.7429,3.3241,7.5029,7.5029,0,0,0,4.5327,1.2844,9.58,9.58,0,0,0,5.539-1.6846,11.8674,11.8674,0,0,0,3.9278-4.6356,14.9332,14.9332,0,0,0,1.4608-6.7227A15.5974,15.5974,0,0,0,158.4792,15.9925Zm-3.652,11.5064a8.2061,8.2061,0,0,1-2.7949,3.2788,7.1507,7.1507,0,0,1-4.0793,1.1838,6.7719,6.7719,0,0,1-4.2331-1.2539,7.6594,7.6594,0,0,1-2.4874-3.3489,12.36,12.36,0,0,1-.8333-4.5112v-.1a13.1045,13.1045,0,0,1,.831-4.86,6.74,6.74,0,0,1,6.7227-4.4615,6.99,6.99,0,0,1,5.842,2.6434,10.5047,10.5047,0,0,1,2.0645,6.6707A10.6242,10.6242,0,0,1,154.8272,27.499Z"/></svg>